<svg xmlns="http://www.w3.org/2000/svg" version="1.1" xmlns:xlink="http://www.w3.org/1999/xlink" xmlns:svgjs="http://svgjs.dev/svgjs" width="1000" height="1000" viewBox="0 0 1000 1000"><rect width="1000" height="1000" fill="#000000"></rect><g transform="matrix(0.7,0,0,0.7,149.57585321423744,367.5104231991726)"><svg viewBox="0 0 396 150" data-background-color="#ffffff" preserveAspectRatio="xMidYMid meet" height="378" width="1000" xmlns="http://www.w3.org/2000/svg" xmlns:xlink="http://www.w3.org/1999/xlink"><g id="tight-bounds" transform="matrix(1,0,0,1,0.2399458959456524,0.1074698417389186)"><svg viewBox="0 0 395.52 149.78506031652216" height="149.78506031652216" width="395.52"><g><svg viewBox="0 0 676.5082790825398 256.19648408931243" height="149.78506031652216" width="395.52"><g transform="matrix(1,0,0,1,0,17.280257724878197)"><svg viewBox="0 0 395.52 221.63596863955604" height="221.63596863955604" width="395.52"><g><svg viewBox="0 0 395.52 221.63596863955604" height="221.63596863955604" width="395.52"><g><svg viewBox="0 0 395.52 154.8523318022156" height="154.8523318022156" width="395.52"><g transform="matrix(1,0,0,1,0,0)"><svg width="395.52" viewBox="4.849999904632568 -35.83000183105469 92.52000427246094 36.230003356933594" height="154.8523318022156" data-palette-color="#000000"><path d="M9.68-35.83L9.68-20.13 11.5-20.13Q12.45-20.13 13.01-20.36 13.58-20.6 14.08-21.18L14.08-21.18 26-34.68Q26.55-35.3 27.06-35.56 27.58-35.83 28.38-35.83L28.38-35.83 32.5-35.83 18.85-20.4Q18.32-19.83 17.86-19.43 17.4-19.03 16.88-18.78L16.88-18.78Q17.57-18.55 18.1-18.1 18.63-17.65 19.2-16.98L19.2-16.98 33.45 0 29.25 0Q28.78 0 28.45-0.08 28.13-0.15 27.89-0.28 27.65-0.4 27.45-0.6 27.25-0.8 27.05-1.03L27.05-1.03 14.68-15.25Q14.4-15.55 14.16-15.76 13.93-15.98 13.61-16.13 13.3-16.28 12.89-16.34 12.48-16.4 11.88-16.4L11.88-16.4 9.68-16.4 9.68 0 4.85 0 4.85-35.83 9.68-35.83ZM53.2-22.78L52.2-21.15Q51.9-20.6 51.27-20.6L51.27-20.6Q50.9-20.6 50.42-20.88 49.95-21.15 49.26-21.49 48.57-21.83 47.62-22.11 46.67-22.4 45.37-22.4L45.37-22.4Q44.25-22.4 43.35-22.11 42.45-21.83 41.81-21.33 41.17-20.83 40.84-20.16 40.5-19.5 40.5-18.73L40.5-18.73Q40.5-17.75 41.06-17.1 41.62-16.45 42.55-15.98 43.47-15.5 44.65-15.14 45.82-14.78 47.06-14.36 48.3-13.95 49.47-13.45 50.65-12.95 51.57-12.2 52.5-11.45 53.06-10.36 53.62-9.28 53.62-7.75L53.62-7.75Q53.62-6 53-4.51 52.37-3.03 51.15-1.94 49.92-0.85 48.15-0.23 46.37 0.4 44.05 0.4L44.05 0.4Q41.4 0.4 39.25-0.46 37.1-1.33 35.6-2.68L35.6-2.68 36.65-4.38Q36.85-4.7 37.12-4.88 37.4-5.05 37.85-5.05L37.85-5.05Q38.3-5.05 38.8-4.7 39.3-4.35 40.01-3.93 40.72-3.5 41.74-3.15 42.75-2.8 44.27-2.8L44.27-2.8Q45.57-2.8 46.55-3.14 47.52-3.48 48.17-4.05 48.82-4.63 49.14-5.38 49.45-6.13 49.45-6.98L49.45-6.98Q49.45-8.03 48.89-8.71 48.32-9.4 47.4-9.89 46.47-10.38 45.29-10.74 44.1-11.1 42.86-11.5 41.62-11.9 40.44-12.41 39.25-12.93 38.32-13.7 37.4-14.48 36.84-15.61 36.27-16.75 36.27-18.38L36.27-18.38Q36.27-19.83 36.87-21.16 37.47-22.5 38.62-23.51 39.77-24.53 41.45-25.13 43.12-25.73 45.27-25.73L45.27-25.73Q47.77-25.73 49.76-24.94 51.75-24.15 53.2-22.78L53.2-22.78ZM77.72-12.95L77.72-12.95Q78.07-12.35 78.33-11.69 78.6-11.03 78.85-10.35L78.85-10.35Q79.1-11.05 79.37-11.69 79.65-12.33 80-12.98L80-12.98 92.12-35Q92.45-35.58 92.8-35.7 93.15-35.83 93.8-35.83L93.8-35.83 97.37-35.83 97.37 0 93.12 0 93.12-26.33Q93.12-26.85 93.15-27.45 93.17-28.05 93.22-28.68L93.22-28.68 80.95-6.28Q80.32-5.15 79.2-5.15L79.2-5.15 78.5-5.15Q77.37-5.15 76.75-6.28L76.75-6.28 64.2-28.75Q64.27-28.1 64.31-27.48 64.35-26.85 64.35-26.33L64.35-26.33 64.35 0 60.1 0 60.1-35.83 63.67-35.83Q64.32-35.83 64.67-35.7 65.02-35.58 65.35-35L65.35-35 77.72-12.95Z" opacity="1" transform="matrix(1,0,0,1,0,0)" fill="#ffffff" class="undefined-text-0" data-fill-palette-color="primary" id="text-0"></path></svg></g></svg></g><g transform="matrix(1,0,0,1,163.310208,191.40925088475544)"><svg viewBox="0 0 232.209792 30.226717754800593" height="30.226717754800593" width="232.209792"><g transform="matrix(1,0,0,1,0,0)"><svg width="232.209792" viewBox="1.9500000476837158 -33.88999938964844 264.42999267578125 34.43000030517578" height="30.226717754800593" data-palette-color="#0d05ff"><path d="M7.96-32.03L7.96-32.03Q10.16-32.03 15.58-32.23 21-32.42 23.73-32.42L23.73-32.42Q23.93-31.01 24.49-28.69 25.05-26.37 25.15-25.78L25.15-25.78Q24.9-25.54 24.27-25.54 23.63-25.54 23.58-25.88L23.58-25.88Q22.85-28.56 21.53-29.32 20.21-30.08 17.92-30.08L17.92-30.08 14.65-30.08Q10.45-30.08 10.35-29.44L10.35-29.44Q10.11-28.27 10.11-25.34L10.11-25.34 10.11-17.38Q10.11-17.09 12.16-17.09L12.16-17.09 14.75-17.09Q18.02-17.09 18.75-17.55 19.48-18.02 20.02-20.21L20.02-20.21Q20.07-20.51 20.12-20.65L20.12-20.65Q20.17-21 20.85-21L20.85-21Q21.44-21 21.68-20.75L21.68-20.75 21.68-11.28Q21.48-11.08 20.9-11.08L20.9-11.08Q20.26-11.08 20.12-11.47L20.12-11.47Q19.78-12.79 19.53-13.45 19.29-14.11 19.17-14.23 19.04-14.36 18.75-14.55L18.75-14.55Q18.12-14.94 13.57-14.94L13.57-14.94Q10.11-14.94 10.11-14.5L10.11-14.5 10.11-6.79Q10.11-3.96 10.55-2.25L10.55-2.25Q10.64-1.9 11.91-1.59 13.18-1.27 13.67-1.27L13.67-1.27Q13.87-1.27 13.87-0.54L13.87-0.54Q13.87-0.15 13.77 0.15L13.77 0.15Q8.89-0.1 8.11-0.1L8.11-0.1Q7.86-0.1 2.25 0.15L2.25 0.15Q2.05-0.05 2.05-0.59L2.05-0.59Q2.05-1.27 2.25-1.27L2.25-1.27Q2.88-1.27 4.13-1.56 5.37-1.86 5.52-2.25L5.52-2.25Q5.86-3.56 5.86-6.64L5.86-6.64 5.86-25.44Q5.86-28.32 5.52-29.64L5.52-29.64Q5.37-30.03 4.08-30.37 2.78-30.71 2.15-30.71L2.15-30.71Q1.95-30.71 1.95-31.3L1.95-31.3Q1.95-31.93 2.15-32.13L2.15-32.13Q4.69-32.03 7.96-32.03ZM48.14-16.65L48.14-16.65 48.14-6.88Q48.14-4.79 48.48-3.17L48.48-3.17Q48.58-2.83 49.02-2.64 49.46-2.44 49.95-2.39 50.44-2.34 50.93-2.34L50.93-2.34 51.36-2.29Q51.51-2.25 51.51-1.76L51.51-1.76Q51.51-1.61 51.39-1.29 51.27-0.98 51.12-0.98L51.12-0.98Q50.39-0.93 49.48-0.78 48.58-0.63 47.8-0.44 47.02-0.24 46.34-0.05 45.65 0.15 45.26 0.29L45.26 0.29 44.82 0.39Q44.43 0.39 44.43-0.39L44.43-0.39 44.43-2.88 44.33-3.13Q41.11 0.34 37.94 0.34L37.94 0.34Q36.13 0.34 34.84-0.56 33.54-1.46 32.93-2.95 32.32-4.44 32.08-5.83 31.83-7.23 31.83-8.74L31.83-8.74 31.83-14.89Q31.83-16.8 31.15-17.53L31.15-17.53Q30.66-18.12 29.95-18.33 29.25-18.55 28.78-18.55 28.32-18.55 28.32-18.65L28.32-18.65Q28.32-19.82 28.61-19.87L28.61-19.87Q33.79-20.65 35.35-21.14L35.35-21.14Q35.4-21.14 35.5-21.17 35.59-21.19 35.59-21.19L35.59-21.19Q35.79-21.19 35.84-20.78 35.89-20.36 35.84-20.17L35.84-20.17Q35.54-17.82 35.54-16.55L35.54-16.55 35.54-9.96Q35.54-6.2 36.67-4.42 37.79-2.64 40.33-2.64L40.33-2.64Q41.79-2.64 43.11-3.78 44.43-4.93 44.43-5.76L44.43-5.76 44.43-14.89Q44.43-16.8 43.75-17.53L43.75-17.53Q43.26-18.12 42.55-18.33 41.84-18.55 41.38-18.55 40.92-18.55 40.92-18.65L40.92-18.65Q40.92-19.82 41.21-19.87L41.21-19.87Q46.38-20.65 47.95-21.14L47.95-21.14Q48-21.14 48.09-21.17 48.19-21.19 48.19-21.19L48.19-21.19Q48.39-21.19 48.44-20.78 48.48-20.36 48.44-20.17L48.44-20.17Q48.14-17.82 48.14-16.65ZM56.39-5.66L56.39-5.66 56.39-26.81Q56.39-28.47 56.1-29.93L56.1-29.93Q55.85-30.71 53.61-30.71L53.61-30.71 53.17-30.71Q52.88-30.71 52.88-31.25L52.88-31.25Q52.88-32.03 53.17-32.03L53.17-32.03Q54.63-32.18 55.88-32.42 57.12-32.67 57.83-32.91 58.54-33.15 59.03-33.37 59.52-33.59 59.76-33.74L59.76-33.74 59.96-33.89 60.05-33.89Q60.25-33.89 60.44-33.62 60.64-33.35 60.69-33.11L60.69-33.11Q60.15-31.54 60.15-28.86L60.15-28.86 60.15-6.59Q60.15-3.76 60.54-2.25L60.54-2.25Q60.64-1.9 61.81-1.59 62.98-1.27 63.47-1.27L63.47-1.27Q63.62-1.27 63.67-0.68 63.72-0.1 63.62 0.15L63.62 0.15Q58.74-0.1 58.39-0.1L58.39-0.1Q58.1-0.1 53.07 0.15L53.07 0.15Q52.88-0.05 52.88-0.66 52.88-1.27 53.07-1.27L53.07-1.27Q53.66-1.27 54.8-1.59 55.95-1.9 56.05-2.25L56.05-2.25Q56.39-3.66 56.39-5.66ZM68.64-5.66L68.64-5.66 68.64-26.81Q68.64-28.47 68.35-29.93L68.35-29.93Q68.11-30.71 65.86-30.71L65.86-30.71 65.42-30.71Q65.13-30.71 65.13-31.25L65.13-31.25Q65.13-32.03 65.42-32.03L65.42-32.03Q66.89-32.18 68.13-32.42 69.38-32.67 70.09-32.91 70.79-33.15 71.28-33.37 71.77-33.59 72.01-33.74L72.01-33.74 72.21-33.89 72.31-33.89Q72.5-33.89 72.7-33.62 72.89-33.35 72.94-33.11L72.94-33.11Q72.4-31.54 72.4-28.86L72.4-28.86 72.4-6.59Q72.4-3.76 72.8-2.25L72.8-2.25Q72.89-1.9 74.06-1.59 75.24-1.27 75.72-1.27L75.72-1.27Q75.87-1.27 75.92-0.68 75.97-0.1 75.87 0.15L75.87 0.15Q70.99-0.1 70.65-0.1L70.65-0.1Q70.35-0.1 65.32 0.15L65.32 0.15Q65.13-0.05 65.13-0.66 65.13-1.27 65.32-1.27L65.32-1.27Q65.91-1.27 67.06-1.59 68.21-1.9 68.3-2.25L68.3-2.25Q68.64-3.66 68.64-5.66ZM85.98-21.34L85.98-21.34Q87.05-21.34 88.69-21.07 90.32-20.8 90.96-20.7L90.96-20.7Q91.45-18.46 91.54-15.72L91.54-15.72Q91.54-15.48 90.91-15.48L90.91-15.48Q90.22-15.48 90.18-15.82L90.18-15.82Q89.93-17.19 88.78-18.41 87.64-19.63 86.17-19.63L86.17-19.63Q82.66-19.63 82.66-16.75L82.66-16.75Q82.66-16.02 82.85-15.45 83.05-14.89 83.61-14.38 84.17-13.87 84.46-13.65 84.76-13.43 85.76-12.87 86.76-12.3 87-12.16L87-12.16Q87.2-12.06 88.15-11.5 89.1-10.94 89.49-10.69 89.88-10.45 90.64-9.86 91.4-9.28 91.74-8.81 92.08-8.35 92.4-7.64 92.71-6.93 92.71-6.2L92.71-6.2Q92.71-3.32 90.47-1.39 88.22 0.54 85.2 0.54L85.2 0.54Q84.17 0.54 83.32 0.42 82.46 0.29 81.29 0 80.12-0.29 79.48-0.39L79.48-0.39Q79.19-1.17 78.92-2.83 78.65-4.49 78.65-5.47L78.65-5.47Q79.04-5.76 79.24-5.76L79.24-5.76Q79.97-5.76 80.02-5.47L80.02-5.47Q80.31-4 81.85-2.61 83.39-1.22 85.2-1.22L85.2-1.22Q86.76-1.22 87.76-2.08 88.76-2.93 88.76-4.54L88.76-4.54Q88.76-5.37 88.44-6.08 88.12-6.79 87.42-7.35 86.71-7.91 86.1-8.28 85.49-8.64 84.37-9.23 83.24-9.81 82.7-10.16L82.7-10.16Q78.9-12.35 78.9-15.38L78.9-15.38Q78.9-18.02 81.02-19.68 83.14-21.34 85.98-21.34ZM98.08-5.86L98.08-18.26 95.25-18.26Q95.01-18.26 95.01-19.29L95.01-19.29Q95.01-19.58 95.06-19.63L95.06-19.63Q96.47-20.26 98.13-22.22L98.13-22.22Q98.67-22.85 99.18-23.66 99.69-24.46 100.04-25.05 100.38-25.63 100.38-25.68L100.38-25.68Q101.84-25.68 101.84-25.44L101.84-25.44 101.84-20.61Q103.11-20.61 105.7-20.58 108.29-20.56 108.43-20.56L108.43-20.56Q108.83-20.56 108.83-20.12L108.83-20.12Q108.83-19.24 108.34-18.26L108.34-18.26 101.84-18.26 101.84-6.3Q101.84-4.35 102.84-3.17 103.84-2 105.46-2L105.46-2Q106.92-2 108.48-2.93L108.48-2.93Q108.63-3.03 108.92-2.51 109.22-2 109.17-1.95L109.17-1.95Q108.43-1.17 106.92-0.42 105.41 0.34 103.8 0.34L103.8 0.34Q101.35 0.34 99.72-1.27 98.08-2.88 98.08-5.86L98.08-5.86ZM116.34-3.15Q117.17-2.44 118.49-2.44 119.81-2.44 121.03-3.25 122.25-4.05 122.25-4.88L122.25-4.88 122.25-9.91Q121.86-9.72 120.35-9.23 118.83-8.74 117.98-8.37 117.12-8.01 116.32-7.15 115.51-6.3 115.51-5.18L115.51-5.18Q115.51-3.86 116.34-3.15ZM120.93-21.29L120.93-21.29Q123.62-21.29 124.79-20 125.96-18.7 125.96-15.82L125.96-15.82 125.96-4.54Q125.96-3.52 126.5-2.83 127.04-2.15 127.96-2.15L127.96-2.15Q128.65-2.15 129.67-2.83L129.67-2.83Q129.87-2.83 129.87-2.44L129.87-2.44Q129.87-1.81 129.62-1.42L129.62-1.42Q127.62 0.29 126.21 0.29L126.21 0.29Q125.08 0.29 124.06-0.63 123.03-1.56 122.64-2.59L122.64-2.59Q122.59-2.59 122.28-2.27 121.96-1.95 121.42-1.54 120.88-1.12 120.18-0.68 119.47-0.24 118.52 0.05 117.56 0.34 116.59 0.34L116.59 0.34Q114.34 0.34 112.88-0.85 111.41-2.05 111.41-4.44L111.41-4.44Q111.41-5.52 111.95-6.47 112.49-7.42 113.22-8.03 113.95-8.64 115.22-9.28 116.49-9.91 117.39-10.23 118.3-10.55 119.76-11.04 121.23-11.52 121.81-11.77L121.81-11.77Q122.25-11.91 122.25-12.5L122.25-12.5 122.25-16.16Q122.25-17.72 121.27-18.58 120.3-19.43 118.93-19.43L118.93-19.43Q117.47-19.43 116.49-18.43 115.51-17.43 115.51-15.82L115.51-15.82Q115.51-14.11 113.51-14.11L113.51-14.11Q112.14-14.11 111.61-15.04L111.61-15.04Q111.61-17.14 114.68-19.21 117.76-21.29 120.93-21.29ZM141.44-21.29L141.44-21.29Q146.81-21.29 148.86-18.8L148.86-18.8Q148.86-15.53 147.05-15.53L147.05-15.53Q146.22-15.53 145.78-15.89 145.34-16.26 144.66-17.24L144.66-17.24Q143.15-19.48 141.05-19.48L141.05-19.48Q139.05-19.48 137.41-17.58 135.77-15.67 135.77-11.91L135.77-11.91Q135.77-8.01 137.7-5.42 139.63-2.83 143.05-2.83L143.05-2.83Q144.07-2.83 145-3.03 145.93-3.22 146.59-3.49 147.25-3.76 147.71-4.03 148.18-4.3 148.52-4.54L148.52-4.54 148.86-4.79Q149.15-4.79 149.15-4.15L149.15-4.15Q149.15-3.76 148.86-3.27L148.86-3.27Q147.88-1.9 145.98-0.81 144.07 0.29 141.83 0.29L141.83 0.29Q137.78 0.29 134.87-2.76 131.96-5.81 131.96-10.21L131.96-10.21Q131.96-14.7 134.41-17.99 136.85-21.29 141.44-21.29ZM168.83-17.97L168.83-17.97Q168-17.48 165.65-15.65 163.31-13.82 161.6-12.06L161.6-12.06Q163.02-10.55 165.07-8.23 167.12-5.91 168.44-4.47 169.76-3.03 170.24-2.59L170.24-2.59Q171.07-1.9 172.34-1.54 173.61-1.17 174.15-1.17L174.15-1.17Q174.35-1.17 174.35-0.39L174.35-0.39Q174.35 0.05 174.3 0.15L174.3 0.15Q169.41-0.1 168.97-0.1L168.97-0.1Q168.88-0.1 163.9 0.15L163.9 0.15Q163.7-0.05 163.7-0.61 163.7-1.17 163.9-1.17L163.9-1.17Q164.38-1.17 165.02-1.37 165.65-1.56 165.65-1.81L165.65-1.81Q165.65-1.9 165.61-1.95L165.61-1.95 158.48-9.67 157.89-9.52 157.89-6.59Q157.99-3.37 158.28-2.25L158.28-2.25Q158.38-1.9 159.55-1.59 160.72-1.27 161.21-1.27L161.21-1.27Q161.36-1.27 161.41-0.68 161.45-0.1 161.36 0.15L161.36 0.15Q156.47-0.1 156.13-0.1L156.13-0.1Q155.84-0.1 150.81 0.15L150.81 0.15Q150.61-0.05 150.61-0.66 150.61-1.27 150.81-1.27L150.81-1.27Q151.4-1.27 152.54-1.59 153.69-1.9 153.79-2.25L153.79-2.25Q154.13-3.66 154.13-5.66L154.13-5.66 154.13-26.81Q154.13-28.47 153.84-29.93L153.84-29.93Q153.59-30.71 151.35-30.71L151.35-30.71 150.91-30.71Q150.61-30.71 150.61-31.25L150.61-31.25Q150.61-32.03 150.91-32.03L150.91-32.03Q152.37-32.18 153.62-32.42 154.86-32.67 155.57-32.91 156.28-33.15 156.77-33.37 157.26-33.59 157.45-33.74L157.45-33.74 157.69-33.89 157.79-33.89Q157.99-33.89 158.18-33.62 158.38-33.35 158.43-33.11L158.43-33.11Q157.89-31.54 157.89-28.86L157.89-28.86 157.89-11.77Q158.92-12.01 159.11-12.21L159.11-12.21Q160.19-13.13 161.36-14.11 162.53-15.09 163.11-15.58 163.7-16.06 164.24-16.55 164.77-17.04 164.97-17.33 165.17-17.63 165.17-17.92L165.17-17.92Q165.17-18.51 164.09-18.6 163.02-18.7 162.97-18.8L162.97-18.8Q162.63-19.78 163.02-19.92L163.02-19.92 166.87-19.92Q167.61-19.92 168.41-19.97 169.22-20.02 170.32-20.07 171.42-20.12 172.25-20.17L172.25-20.17Q172.44-20.07 172.47-19.73 172.49-19.38 172.39-19.09 172.29-18.8 172.2-18.8L172.2-18.8Q171.56-18.8 170.39-18.51 169.22-18.21 168.83-17.97ZM192.99-32.03L192.99-32.03Q194.85-32.03 197.7-32.08 200.56-32.13 201.49-32.13L201.49-32.13Q209.45-32.13 213.89-27.44 218.33-22.75 218.33-16.41L218.33-16.41Q218.33-9.33 213.84-4.59 209.35 0.15 201.44 0.15L201.44 0.15Q200.85 0.15 197.95 0.05 195.04-0.05 193.09 0L193.09 0 187.18 0.15Q187.04 0 187.04-0.59L187.04-0.59Q187.04-1.27 187.18-1.27L187.18-1.27Q187.82-1.27 189.06-1.61 190.31-1.95 190.55-2.39L190.55-2.39Q190.89-2.98 190.89-6.98L190.89-6.98 190.89-25.44Q190.89-28.32 190.55-29.64L190.55-29.64Q190.4-30.03 189.11-30.37 187.82-30.71 187.18-30.71L187.18-30.71Q186.99-30.71 186.99-31.3L186.99-31.3Q186.99-31.93 187.18-32.13L187.18-32.13Q189.72-32.03 192.99-32.03ZM195.14-26.12L195.14-26.12 195.14-6.79Q195.14-4.74 195.87-3.08L195.87-3.08Q196.07-2.59 198.49-2.34 200.9-2.1 202.22-2.1L202.22-2.1Q213.45-2.1 213.45-16.6L213.45-16.6Q213.45-22.17 210.5-26.07 207.54-29.98 201.88-29.98L201.88-29.98 201.64-29.98Q196.36-29.98 195.78-29.2L195.78-29.2Q195.14-28.32 195.14-26.12ZM231.56-19.48L231.56-19.48Q229.03-19.48 227.68-17.31 226.34-15.14 226.34-13.72L226.34-13.72Q226.34-13.38 226.63-13.38L226.63-13.38 236.15-13.38Q236.4-13.38 236.4-13.87L236.4-13.87Q236.4-15.43 235.08-17.46 233.76-19.48 231.56-19.48ZM232.05-21.29L232.05-21.29Q234.3-21.29 236.01-20.43 237.72-19.58 238.62-18.24 239.52-16.89 239.94-15.5 240.35-14.11 240.35-12.74L240.35-12.74Q240.35-11.77 240.06-11.55 239.77-11.33 238.94-11.33L238.94-11.33 226.63-11.33Q226.24-11.33 226.24-11.08L226.24-11.08Q226.24-8.01 228.1-5.42 229.95-2.83 233.47-2.83L233.47-2.83Q234.49-2.83 235.42-3.03 236.35-3.22 237.01-3.49 237.67-3.76 238.13-4.03 238.6-4.3 238.94-4.54L238.94-4.54 239.28-4.79Q239.57-4.79 239.57-4.15L239.57-4.15Q239.57-3.76 239.28-3.27L239.28-3.27Q238.3-1.9 236.4-0.81 234.49 0.29 232.25 0.29L232.25 0.29Q228.2 0.29 225.29-2.76 222.38-5.81 222.38-10.21L222.38-10.21Q222.38-15.33 225.14-18.31 227.9-21.29 232.05-21.29ZM260.27-18.21L260.27-18.21Q260.27-19.78 256.76-19.78L256.76-19.78Q256.56-19.78 256.56-20.39 256.56-21 256.76-21.19L256.76-21.19Q257.29-21.14 258.76-21.04 260.22-20.95 261.4-20.95L261.4-20.95 266.28-21.19Q266.38-20.9 266.38-20.46L266.38-20.46Q266.38-19.78 266.03-19.78L266.03-19.78Q265.35-19.78 264.23-19.38 263.1-18.99 262.71-18.12L262.71-18.12 254.95-0.59Q254.85-0.24 254.36 0.15 253.88 0.54 253.53 0.54 253.19 0.54 253.1 0.34L253.1 0.34Q252.26-1.46 249.46-8.06 246.65-14.65 244.55-18.8L244.55-18.8Q244.06-19.78 241.67-19.78L241.67-19.78Q241.47-19.78 241.47-20.41L241.47-20.41Q241.47-21 241.67-21.19L241.67-21.19Q246.7-20.95 246.75-20.95L246.75-20.95 251.63-21.19Q251.73-21 251.65-20.39 251.58-19.78 251.43-19.78L251.43-19.78Q249.04-19.78 249.04-18.95L249.04-18.95Q249.04-18.85 249.09-18.75L249.09-18.75 254.95-5.52 259.88-16.75Q260.27-17.68 260.27-18.21Z" opacity="1" transform="matrix(1,0,0,1,0,0)" fill="#ffffff" class="undefined-text-1" data-fill-palette-color="secondary" id="text-1"></path></svg></g></svg></g></svg></g></svg></g><g transform="matrix(1,0,0,1,432.0769190825398,0)"><svg viewBox="0 0 244.43135999999998 256.19648408931243" height="256.19648408931243" width="244.43135999999998"><g><svg xmlns="http://www.w3.org/2000/svg" xmlns:xlink="http://www.w3.org/1999/xlink" version="1.1" x="0" y="0" viewBox="-343.2294921875 256.1366271972656 95.27742004394531 99.86337280273438" enable-background="new -346 256 100 100" xml:space="preserve" height="256.19648408931243" width="244.43135999999998" class="icon-icon-0" data-fill-palette-color="accent" id="icon-0"><g fill="#000000" data-fill-palette-color="accent"><path d="M-270.506 296.571c2.956 0.53 5.261 2.004 6.668 4.262 1.765 2.835 2.047 6.81 0.791 11.195-0.181 0.622-0.391 1.213-0.633 1.781-2.146 5.058-6.734 8.244-11.392 8.244-0.922 0-1.85-0.124-2.762-0.386-1.135-0.327-1.79-1.512-1.466-2.646 0.326-1.136 1.52-1.787 2.644-1.466 3.439 0.998 7.315-1.345 9.038-5.412 0.175-0.413 0.331-0.851 0.463-1.302 0.902-3.153 0.79-5.98-0.312-7.749-0.771-1.238-2.013-1.995-3.795-2.314-2.618-0.467-5.69 0.518-6.627 3.791-0.325 1.134-1.509 1.792-2.644 1.467-1.135-0.323-1.792-1.509-1.467-2.642 0.339-1.188 0.877-2.243 1.555-3.161l-22.687 12.136 3.444 16.274h36.963c8.106-7.165 14.773-20.772 14.773-32.065 0-4.309-0.74-8.568-2.05-12.625l-23.378 12.5C-272.449 296.385-271.494 296.393-270.506 296.571z" fill="#ffffff" data-fill-palette-color="accent"></path><circle cx="-316.179" cy="315.062" r="2.9" fill="#ffffff" data-fill-palette-color="accent"></circle><circle cx="-325.352" cy="312.077" r="2.9" fill="#ffffff" data-fill-palette-color="accent"></circle><circle cx="-309.676" cy="321.964" r="2.9" fill="#ffffff" data-fill-palette-color="accent"></circle><circle cx="-308.339" cy="331.048" r="2.9" fill="#ffffff" data-fill-palette-color="accent"></circle><path d="M-298.774 332.958l-15.866 17.809c-4.065-0.537-18.011-3.42-22.446-17.998-4.874-16.012 4.05-27.101 7.091-30.29l22.184 7.546 56.279-30.101c-5.874-13.4-18.492-23.657-34.012-23.786-16.893-0.142-34.019 10.871-37.447 28.396-0.718 3.106-1.532 11.223-1.532 11.223l-2.062 2.915-4.556-1.549-1.021 0.899c-0.658 0.579-16.024 14.432-9.424 36.117 6.068 19.948 27.549 21.423 27.765 21.437l1.137 0.066 7.819-8.775V356h40.582l0.263-23.08h-34.761L-298.774 332.958zM-310.791 291.636c2.268 0 4.1 1.833 4.1 4.096 0 2.265-1.832 4.1-4.1 4.1-2.263 0-4.098-1.834-4.098-4.1C-314.889 293.468-313.054 291.636-310.791 291.636z" fill="#ffffff" data-fill-palette-color="accent"></path></g></svg></g></svg></g></svg></g><defs></defs></svg><rect width="395.52" height="149.78506031652216" fill="none" stroke="none" visibility="hidden"></rect></g></svg></g></svg>