<svg xmlns="http://www.w3.org/2000/svg" version="1.1" xmlns:xlink="http://www.w3.org/1999/xlink" xmlns:svgjs="http://svgjs.dev/svgjs" width="1000" height="707" viewBox="0 0 1000 707"><g transform="matrix(1,0,0,1,-0.6060606060606233,-0.35324520911018453)"><svg viewBox="0 0 396 280" data-background-color="#ffffff" preserveAspectRatio="xMidYMid meet" height="707" width="1000" xmlns="http://www.w3.org/2000/svg" xmlns:xlink="http://www.w3.org/1999/xlink"><g id="tight-bounds" transform="matrix(1,0,0,1,0.2400000000000091,0.14010090728305613)"><svg viewBox="0 0 395.52 279.72" height="279.72" width="395.52"><g><svg viewBox="0 0 395.52 279.72" height="279.72" width="395.52"><g><svg viewBox="0 0 395.52 279.72" height="279.72" width="395.52"><g><svg viewBox="0 0 395.52 279.72" height="279.72" width="395.52"><g><svg viewBox="0 0 395.52 279.72" height="279.72" width="395.52"><g transform="matrix(1,0,0,1,95.70146727714408,57.44670465270788)"><svg viewBox="0 0 204.11706544571183 164.82659069458427" height="164.82659069458427" width="204.11706544571183"><g><circle r="82" cx="102.05853272285592" cy="82.41329534729213" fill="#000000" data-fill-palette-color="accent"></circle><svg xmlns="http://www.w3.org/2000/svg" xmlns:xlink="http://www.w3.org/1999/xlink" version="1.1" x="34.95935926186291" y="34.95935926186291" viewBox="16.99700164794922 16.150001525878906 66.23600006103516 66.5260009765625" enable-background="new 0 0 100 100" xml:space="preserve" height="94.90787217085845" width="134.198346921986" class="icon-o-0" data-fill-palette-color="quaternary" id="o-0"><g fill="#89939e" data-fill-palette-color="quaternary"><path d="M64.044 20.995c0.659 0.064 1.329 0.027 1.995 0.029 2.705 0.001 5.412 0.001 8.117 0.001 0.072 0.115 0.143 0.231 0.215 0.347-0.451 0.398-0.914 0.782-1.348 1.196C62.105 32.974 51.191 43.38 40.278 53.786c-0.401 0.384-0.824 0.747-1.196 1.157-0.965 1.063-1.021 2.184-0.187 3.135 0.826 0.941 2.244 1.104 3.311 0.326 0.445-0.322 0.827-0.736 1.228-1.118C54.59 46.65 65.743 36.013 76.904 25.384c0.402-0.384 0.726-0.945 1.533-0.994 0 0.711-0.002 1.311 0.002 1.912 0.013 2.939-0.002 5.879 0.053 8.814 0.027 1.509 1.014 2.478 2.352 2.467s2.311-0.984 2.318-2.499c0.029-5.435 0.029-10.868-0.002-16.302-0.008-1.476-0.896-2.312-2.385-2.449-0.219-0.021-0.442-0.009-0.664-0.009-5.045-0.001-10.092-0.004-15.137 0.003-0.439 0.003-0.896 0.006-1.316 0.119-1.067 0.292-1.787 1.316-1.732 2.365C61.986 19.95 62.852 20.876 64.044 20.995z" fill="#89939e" data-fill-palette-color="quaternary"></path></g><path d="M78.232 46.917v26.042c0 2.601-2.117 4.717-4.717 4.717H26.714c-2.601 0-4.717-2.116-4.717-4.717V25.867c0-2.602 2.116-4.717 4.717-4.717h25.703v-5H26.714c-5.366 0-9.717 4.35-9.717 9.717v47.092c0 5.365 4.351 9.717 9.717 9.717h46.802c5.365 0 9.717-4.352 9.717-9.717V46.917H78.232z" fill="#89939e" data-fill-palette-color="quaternary"></path></svg></g></svg></g><path d="M92.305 93.623L91.172 96.899 75.386 101.563 77.702 105.472 87.09 108.716 86.088 111.616 59.753 102.516 60.755 99.616 74.078 104.22 64.597 88.497 65.703 85.296 73.956 99.172ZM106.41 73.246C105.199 74.886 103.605 76.182 101.63 77.133 99.659 78.08 97.593 78.551 95.432 78.548V78.548L95.14 75.223C96.97 75.361 98.704 75.087 100.344 74.399 101.989 73.715 103.336 72.663 104.386 71.242V71.242C105.534 69.688 106.062 68.249 105.967 66.924 105.878 65.603 105.243 64.506 104.063 63.634V63.634C102.771 62.679 101.46 62.379 100.132 62.735 98.798 63.087 97.173 64.013 95.256 65.511V65.511C90.6 69.387 86.705 70.166 83.57 67.849V67.849C81.62 66.409 80.589 64.664 80.476 62.615 80.363 60.567 81.14 58.415 82.805 56.162V56.162C84.021 54.517 85.417 53.269 86.995 52.42 88.572 51.571 90.377 51.1 92.41 51.009V51.009L92.619 54.161C90.962 54.159 89.529 54.438 88.322 54.999 87.109 55.556 86.015 56.494 85.04 57.813V57.813C84.022 59.191 83.513 60.557 83.511 61.911 83.51 63.264 84.068 64.353 85.184 65.178V65.178C86.327 66.023 87.533 66.286 88.8 65.967 90.064 65.654 91.638 64.703 93.522 63.115V63.115C95.821 61.288 97.974 60.141 99.979 59.674 101.984 59.207 103.961 59.694 105.91 61.134V61.134C107.112 62.022 107.948 63.115 108.418 64.412 108.883 65.705 108.947 67.115 108.611 68.642 108.277 70.179 107.543 71.713 106.41 73.246ZM162.62 29.975L164.524 3.57 167.782 2.476 176.652 28.889 173.781 29.853 166.693 8.747 164.951 32.818 162.241 33.728 146.736 15.533 153.799 36.563 150.89 37.54 142.02 11.127 145.58 9.931ZM206.375 29.108C204.068 28.971 202.046 28.228 200.31 26.881 198.574 25.533 197.261 23.729 196.372 21.467 195.489 19.205 195.131 16.676 195.297 13.878V13.878C195.464 11.074 196.121 8.595 197.267 6.441 198.42 4.288 199.939 2.646 201.822 1.514 203.706 0.382 205.801-0.115 208.108 0.022V0.022C210.422 0.16 212.447 0.903 214.183 2.251 215.912 3.598 217.221 5.409 218.11 7.684 218.999 9.959 219.359 12.512 219.19 15.343V15.343C219.023 18.14 218.364 20.602 217.213 22.729 216.062 24.856 214.548 26.485 212.671 27.618 210.787 28.749 208.688 29.246 206.375 29.108ZM206.542 26.294C208.233 26.395 209.781 25.988 211.186 25.074 212.591 24.16 213.724 22.837 214.586 21.105 215.454 19.368 215.956 17.372 216.09 15.118V15.118C216.225 12.857 215.965 10.806 215.309 8.964 214.66 7.129 213.693 5.668 212.407 4.58 211.122 3.492 209.633 2.897 207.943 2.797V2.797C206.259 2.696 204.714 3.11 203.308 4.037 201.903 4.965 200.765 6.301 199.896 8.045 199.027 9.796 198.525 11.802 198.39 14.063V14.063C198.255 16.317 198.516 18.358 199.172 20.187 199.829 22.009 200.8 23.457 202.087 24.532 203.373 25.606 204.858 26.194 206.542 26.294ZM253.305 41.604L250.325 40.364 248.517 26.289 243.43 24.175 238.707 35.535 235.874 34.357 246.571 8.629 255.171 12.205C256.729 12.852 257.974 13.722 258.908 14.815 259.839 15.915 260.394 17.141 260.571 18.495 260.743 19.847 260.536 21.228 259.949 22.638V22.638C259.238 24.349 258.114 25.601 256.576 26.393 255.038 27.185 253.325 27.44 251.436 27.158V27.158ZM248.432 12.143L244.402 21.838 249.792 24.079C251.454 24.77 252.911 24.862 254.165 24.355 255.428 23.844 256.362 22.859 256.969 21.399V21.399C257.576 19.94 257.616 18.579 257.091 17.318 256.574 16.053 255.484 15.075 253.823 14.384V14.384ZM282.213 64.105L279.767 62 282.429 48.061 278.252 44.469 270.229 53.795 267.903 51.794 286.074 30.672 293.135 36.746C294.414 37.846 295.327 39.061 295.874 40.39 296.417 41.725 296.562 43.063 296.31 44.405 296.052 45.743 295.425 46.991 294.429 48.149V48.149C293.221 49.554 291.763 50.393 290.055 50.667 288.348 50.941 286.64 50.651 284.932 49.795V49.795ZM286.75 34.591L279.903 42.55 284.328 46.358C285.692 47.531 287.049 48.072 288.398 47.98 289.757 47.888 290.952 47.242 291.983 46.044V46.044C293.013 44.846 293.475 43.566 293.368 42.203 293.271 40.84 292.54 39.572 291.175 38.398V38.398ZM297.364 84.835L292.693 77.785 294.944 76.294 296.429 78.536 315.164 66.124 313.679 63.882 315.921 62.397 320.592 69.447 318.35 70.932 316.859 68.682 298.124 81.094 299.615 83.344ZM307.41 110.981C306.794 109.037 306.68 106.987 307.069 104.829 307.46 102.678 308.292 100.729 309.563 98.981V98.981L312.427 100.696C311.24 102.097 310.444 103.662 310.038 105.393 309.626 107.126 309.687 108.834 310.22 110.518V110.518C310.804 112.361 311.66 113.633 312.788 114.334 313.91 115.037 315.17 115.167 316.569 114.724V114.724C318.101 114.238 319.113 113.353 319.605 112.069 320.103 110.783 320.308 108.924 320.22 106.492V106.492C319.816 100.448 321.472 96.837 325.188 95.659V95.659C327.499 94.927 329.517 95.116 331.241 96.228 332.966 97.339 334.252 99.231 335.098 101.902V101.902C335.716 103.852 335.906 105.715 335.668 107.49 335.429 109.266 334.75 111.003 333.631 112.702V112.702L330.956 111.021C331.931 109.681 332.546 108.358 332.801 107.051 333.062 105.742 332.945 104.306 332.449 102.742V102.742C331.931 101.109 331.125 99.894 330.03 99.099 328.935 98.303 327.726 98.115 326.403 98.535V98.535C325.048 98.964 324.127 99.785 323.641 100.998 323.153 102.205 322.998 104.037 323.178 106.495V106.495C323.307 109.429 322.972 111.845 322.173 113.742 321.374 115.64 319.819 116.954 317.508 117.687V117.687C316.084 118.138 314.709 118.173 313.383 117.793 312.063 117.41 310.884 116.634 309.845 115.465 308.797 114.293 307.985 112.798 307.41 110.981ZM68.734 185.928L67.751 182.948 94.797 174.023 99.666 188.781 97.169 189.605 93.283 177.827 83.842 180.943 86.72 189.665 84.298 190.464 81.42 181.742ZM81.45 215.113C79.71 212.069 79.23 209.31 80.011 206.837 80.796 204.369 82.785 202.221 85.979 200.395V200.395L101.528 191.505 103.085 194.229 87.536 203.119C82.676 205.898 81.469 209.426 83.915 213.704V213.704C85.019 215.636 86.521 216.804 88.421 217.21 90.32 217.615 92.443 217.147 94.79 215.806V215.806L110.339 206.916 111.891 209.631 96.342 218.521C93.2 220.318 90.336 220.907 87.749 220.29 85.165 219.664 83.065 217.938 81.45 215.113ZM106.144 245.035L95.281 233.345 116.144 213.958 118.28 216.257 99.314 233.881 108.042 243.272ZM126.442 260.289L113.584 250.836 130.455 227.891 132.983 229.749 117.647 250.608 127.976 258.203ZM143.417 269.174C141.519 268.31 139.885 266.993 138.516 265.224 137.147 263.455 136.237 261.487 135.787 259.319V259.319L139.041 258.327C139.296 260.187 139.941 261.863 140.976 263.356 142.002 264.852 143.34 265.976 144.99 266.727V266.727C146.792 267.547 148.342 267.771 149.642 267.4 150.942 267.029 151.905 266.157 152.529 264.785V264.785C153.209 263.292 153.229 261.918 152.589 260.664 151.955 259.412 150.686 257.984 148.781 256.38V256.38C143.922 252.548 142.317 248.822 143.965 245.201V245.201C144.991 242.947 146.517 241.543 148.541 240.991 150.563 240.445 152.88 240.766 155.491 241.955V241.955C157.389 242.819 158.929 243.947 160.112 245.339 161.299 246.74 162.153 248.446 162.675 250.457V250.457L159.569 251.342C159.223 249.681 158.638 248.306 157.813 247.215 156.998 246.122 155.832 245.229 154.315 244.539V244.539C152.719 243.812 151.243 243.593 149.886 243.88 148.529 244.167 147.558 244.954 146.972 246.242V246.242C146.372 247.56 146.365 248.818 146.949 250.019 147.534 251.219 148.82 252.592 150.808 254.14V254.14C153.122 256.047 154.723 257.954 155.613 259.862 156.506 261.765 156.439 263.843 155.412 266.097V266.097C154.777 267.494 153.863 268.563 152.672 269.304 151.48 270.046 150.081 270.412 148.472 270.403 146.873 270.39 145.188 269.98 143.417 269.174ZM172.31 277.331L169.285 276.71 174.492 251.349 165.7 249.544 166.221 247.007 186.84 251.24 186.319 253.777 177.517 251.97ZM207.364 279.72L204.445 279.673 201.644 271.648 189.831 271.46 187.075 279.396 183.937 279.346 194.501 251.031 197.42 251.077ZM195.85 255.147L190.829 268.886 200.73 269.044ZM226.463 277.154C224.11 277.615 221.966 277.434 220.032 276.608 218.097 275.783 216.46 274.372 215.12 272.374 213.782 270.383 212.816 267.872 212.222 264.842V264.842C211.621 261.779 211.549 259.062 212.005 256.692 212.459 254.316 213.4 252.385 214.828 250.9 216.249 249.417 218.094 248.453 220.362 248.008V248.008C222.688 247.552 224.776 247.674 226.626 248.374 228.483 249.079 230.056 250.269 231.346 251.945V251.945L229.172 253.853C227.983 252.415 226.731 251.463 225.414 250.997 224.104 250.529 222.602 250.462 220.908 250.794V250.794C218.477 251.271 216.776 252.691 215.805 255.054 214.84 257.415 214.722 260.453 215.45 264.168V264.168C215.927 266.599 216.652 268.639 217.625 270.289 218.606 271.944 219.775 273.126 221.132 273.834 222.49 274.549 223.948 274.754 225.506 274.449V274.449C227.448 274.068 228.872 273.342 229.779 272.271 230.692 271.198 231.432 269.656 231.998 267.643V267.643L234.884 268.691C234.324 271.014 233.339 272.896 231.93 274.336 230.527 275.775 228.705 276.715 226.463 277.154ZM263.732 262.917L260.48 264.356 246.001 255.784 244.694 260.24 248.801 269.523 245.932 270.793 234.408 244.748 237.277 243.479 243.106 256.651 248.273 238.613 251.443 237.211 246.808 253.052ZM289.298 243.594L268.787 223.836 273.687 218.749C275.714 216.645 277.869 215.221 280.152 214.479 282.43 213.741 284.726 213.712 287.04 214.392 289.359 215.077 291.592 216.453 293.74 218.522V218.522C296.944 221.609 298.589 224.918 298.674 228.448 298.759 231.969 297.267 235.322 294.198 238.508V238.508ZM289.431 239.365L292.091 236.603C294.45 234.154 295.623 231.591 295.611 228.914 295.598 226.237 294.21 223.567 291.445 220.904V220.904C288.657 218.218 285.925 216.919 283.249 217.006 280.574 217.094 278.057 218.362 275.698 220.811V220.811L273.037 223.573ZM318.577 205.065L310.253 218.821 285.887 204.077 294.149 190.423 296.399 191.785 289.761 202.754 298.267 207.9 303.455 199.327 305.637 200.647 300.449 209.221 309.662 214.796 316.361 203.725ZM321.828 186.078L300.766 170.094 301.722 167.2 325.644 185.577 324.597 188.745 294.448 189.21 295.43 186.24ZM68.631 144.149C68.631 142.347 70.093 140.885 71.895 140.885 73.698 140.885 75.159 142.347 75.159 144.149 75.159 145.952 73.698 147.413 71.895 147.413 70.093 147.413 68.631 145.952 68.631 144.149ZM319.418 144.149C319.418 142.347 320.879 140.885 322.681 140.885 324.484 140.885 325.945 142.347 325.945 144.149 325.945 145.952 324.484 147.413 322.681 147.413 320.879 147.413 319.418 145.952 319.418 144.149Z" fill="#000000" data-fill-palette-color="primary"></path></svg></g></svg></g></svg></g></svg></g><defs></defs></svg><rect width="395.52" height="279.72" fill="none" stroke="none" visibility="hidden"></rect></g></svg></g></svg>