<svg xmlns="http://www.w3.org/2000/svg" version="1.1" xmlns:xlink="http://www.w3.org/1999/xlink" xmlns:svgjs="http://svgjs.dev/svgjs" width="1000" height="999" viewBox="0 0 1000 999"><g transform="matrix(1,0,0,1,-0.215743440233382,-0.21552769679306039)"><svg viewBox="0 0 343 343" data-background-color="#ffffff" preserveAspectRatio="xMidYMid meet" height="999" width="1000" xmlns="http://www.w3.org/2000/svg" xmlns:xlink="http://www.w3.org/1999/xlink"><g id="tight-bounds" transform="matrix(1,0,0,1,0.0740000000000407,0.07400000000001228)"><svg viewBox="0 0 342.85155851775386 342.85155851775386" height="342.85155851775386" width="342.85155851775386"><g><svg></svg></g><g><svg viewBox="0 0 342.85155851775386 342.85155851775386" height="342.85155851775386" width="342.85155851775386"><g><path d="M0 171.426c0-94.676 76.75-171.426 171.426-171.426 94.676 0 171.426 76.75 171.426 171.426 0 94.676-76.75 171.426-171.426 171.426-94.676 0-171.426-76.75-171.426-171.426zM171.426 332.359c88.881 0 160.933-72.052 160.933-160.933 0-88.881-72.052-160.933-160.933-160.933-88.881 0-160.933 72.052-160.933 160.933 0 88.881 72.052 160.933 160.933 160.933z" data-fill-palette-color="tertiary" fill="#ba273a" stroke="transparent"></path><ellipse rx="164.56874808852186" ry="164.56874808852186" cx="171.42577925887693" cy="171.42577925887693" fill="#ba273a" stroke="transparent" stroke-width="0" fill-opacity="1" data-fill-palette-color="tertiary"></ellipse></g><g transform="matrix(1,0,0,1,64.84655864529837,88.06355424605222)"><svg viewBox="0 0 213.1584412271571 166.72445002564942" height="166.72445002564942" width="213.1584412271571"><g><svg viewBox="0 0 213.1584412271571 166.72445002564942" height="166.72445002564942" width="213.1584412271571"><g><svg viewBox="0 0 213.1584412271571 166.72445002564942" height="166.72445002564942" width="213.1584412271571"><g><svg viewBox="0 0 213.1584412271571 166.72445002564942" height="166.72445002564942" width="213.1584412271571"><g><svg viewBox="0 0 213.1584412271571 166.72445002564942" height="166.72445002564942" width="213.1584412271571"><g><svg viewBox="0 0 213.1584412271571 116.35286093185431" height="116.35286093185431" width="213.1584412271571"><g transform="matrix(1,0,0,1,0,0)"><svg width="213.1584412271571" viewBox="1.9000000953674316 -43.349998474121094 80.1500015258789 43.75" height="116.35286093185431" data-palette-color="#ffffff"><path d="M10.45 0L1.9 0 1.9-42.95 10.4-42.95 10.4-25.75 14.4-42.95 23.05-42.95 18.25-23.3 24.05 0 15.15 0 10.45-20.8 10.45 0ZM35.7 0.4Q29.85 0.4 27.25-2.5 24.65-5.4 24.65-11.85L24.65-11.85 24.65-16.05 33.1-16.05 33.1-10.7Q33.1-7.5 35.15-7.5L35.15-7.5Q36.3-7.5 36.75-8.18 37.2-8.85 37.2-10.45L37.2-10.45Q37.2-12.55 36.7-13.93 36.2-15.3 35.42-16.23 34.65-17.15 32.65-19.1L32.65-19.1 28.95-22.8Q24.65-27 24.65-32.1L24.65-32.1Q24.65-37.6 27.17-40.48 29.7-43.35 34.55-43.35L34.55-43.35Q40.35-43.35 42.9-40.28 45.45-37.2 45.45-30.65L45.45-30.65 36.7-30.65 36.65-33.6Q36.65-34.45 36.17-34.95 35.7-35.45 34.85-35.45L34.85-35.45Q33.85-35.45 33.35-34.9 32.85-34.35 32.85-33.4L32.85-33.4Q32.85-31.3 35.25-29.05L35.25-29.05 40.25-24.25Q42-22.55 43.15-21.03 44.3-19.5 45-17.43 45.7-15.35 45.7-12.5L45.7-12.5Q45.7-6.15 43.37-2.88 41.05 0.4 35.7 0.4L35.7 0.4ZM56.3 0L48.55 0 48.55-42.95 61.65-42.95 65.25-16.75 68.84-42.95 82.05-42.95 82.05 0 74.2 0 74.2-30.95 69.25 0 61.55 0 56.3-30.95 56.3 0Z" opacity="1" transform="matrix(1,0,0,1,0,0)" fill="#ffffff" class="undefined-text-0" data-fill-palette-color="quaternary" id="text-0"></path></svg></g></svg></g><g transform="matrix(1,0,0,1,0,143.82097892920274)"><svg viewBox="0 0 213.1584412271571 22.90347109644667" height="22.90347109644667" width="213.1584412271571"><g transform="matrix(1,0,0,1,0,0)"><svg width="213.1584412271571" viewBox="4.449999809265137 -37.95000076293945 368.5199890136719 39.60000228881836" height="22.90347109644667" data-palette-color="#ffffff"><path d="M9.9 0L4.45 0 4.45-36.25 26.15-36.25 26.15-31.2 9.9-31.2 9.9-20.25 24.1-20.25 24.1-15.15 9.9-15.15 9.9 0ZM45.6 0.4L45.6 0.4Q42.7 0.4 40.2-0.55 37.7-1.5 35.82-3.23 33.95-4.95 32.87-7.38 31.8-9.8 31.8-12.8L31.8-12.8 31.8-36.25 37.3-36.25 37.3-12.95Q37.3-11.2 37.92-9.73 38.55-8.25 39.67-7.13 40.8-6 42.3-5.38 43.8-4.75 45.6-4.75L45.6-4.75Q47.35-4.75 48.87-5.38 50.4-6 51.52-7.13 52.65-8.25 53.3-9.73 53.95-11.2 53.95-12.95L53.95-12.95 53.95-36.25 59.45-36.25 59.45-12.8Q59.45-9.8 58.37-7.38 57.3-4.95 55.42-3.23 53.55-1.5 51.02-0.55 48.5 0.4 45.6 0.4ZM91.45 0L67.95 0 67.95-36.25 73.45-36.25 73.45-5.2 91.45-5.2 91.45 0ZM119.99 0L96.49 0 96.49-36.25 101.99-36.25 101.99-5.2 119.99-5.2 119.99 0ZM145.79-34.25L145.79-34.25 143.84-29.8Q141.79-30.55 139.77-31 137.74-31.45 135.89-31.45L135.89-31.45Q132.74-31.45 130.87-30.15 128.99-28.85 128.99-26.85L128.99-26.85Q128.99-25.15 130.34-24.13 131.69-23.1 133.69-22.28 135.69-21.45 138.04-20.63 140.39-19.8 142.39-18.5 144.39-17.2 145.74-15.23 147.09-13.25 147.09-10.15L147.09-10.15Q147.09-7.75 146.22-5.83 145.34-3.9 143.62-2.5 141.89-1.1 139.31-0.35 136.74 0.4 133.29 0.4L133.29 0.4Q131.09 0.4 129.31 0.1 127.54-0.2 126.12-0.68 124.69-1.15 123.62-1.7 122.54-2.25 121.79-2.7L121.79-2.7 124.19-7.45Q126.19-6.3 128.64-5.6 131.09-4.9 133.09-4.9L133.09-4.9Q134.09-4.9 135.56-5.15 137.04-5.4 138.39-6.03 139.74-6.65 140.72-7.7 141.69-8.75 141.69-10.35L141.69-10.35Q141.69-11.8 140.92-12.83 140.14-13.85 138.87-14.63 137.59-15.4 135.97-16.03 134.34-16.65 132.64-17.32 130.94-18 129.31-18.75 127.69-19.5 126.42-20.58 125.14-21.65 124.37-23.08 123.59-24.5 123.59-26.5L123.59-26.5Q123.59-28.35 124.34-30.15 125.09-31.95 126.59-33.35 128.09-34.75 130.31-35.6 132.54-36.45 135.49-36.45L135.49-36.45Q137.29-36.45 139.02-36.15 140.74-35.85 142.14-35.48 143.54-35.1 144.52-34.75 145.49-34.4 145.79-34.25ZM150.84-36.25L174.39-36.25 174.39-31.05 165.24-31.05 165.24 0 159.79 0 159.79-31.05 150.84-31.05 150.84-36.25ZM205.44 0L200.04 0Q199.79-0.55 199.34-1.6 198.89-2.65 198.31-4.03 197.74-5.4 197.06-7.03 196.39-8.65 195.69-10.4L195.69-10.4 182.89-10.4 178.59 0 173.19 0 189.34-37.95Q189.64-37.25 190.41-35.4 191.19-33.55 192.26-30.98 193.34-28.4 194.66-25.28 195.99-22.15 197.36-18.95 198.74-15.75 200.06-12.65 201.39-9.55 202.49-6.95 203.59-4.35 204.36-2.53 205.14-0.7 205.44 0L205.44 0ZM188.79-24.7L184.79-15 193.84-15Q193.14-16.65 192.51-18.18 191.89-19.7 191.36-20.98 190.84-22.25 190.44-23.2 190.04-24.15 189.84-24.7L189.84-24.7Q189.79-24.8 189.61-25.4 189.44-26 189.34-26.5L189.34-26.5Q189.24-26 189.04-25.4 188.84-24.8 188.79-24.7L188.79-24.7ZM233.18-7.55L235.48-2.6Q234.88-2.15 233.81-1.63 232.73-1.1 231.28-0.65 229.83-0.2 228.06 0.1 226.28 0.4 224.28 0.4L224.28 0.4Q220.03 0.4 216.66-1.07 213.28-2.55 210.93-5.05 208.58-7.55 207.33-10.85 206.08-14.15 206.08-17.85L206.08-17.85Q206.08-21.95 207.56-25.4 209.03-28.85 211.58-31.35 214.13-33.85 217.56-35.25 220.98-36.65 224.83-36.65L224.83-36.65Q226.28-36.65 227.78-36.45 229.28-36.25 230.61-35.9 231.93-35.55 232.96-35.08 233.98-34.6 234.53-34.1L234.53-34.1Q234.13-33.5 233.91-33.1 233.68-32.7 233.43-32.27 233.18-31.85 232.88-31.3 232.58-30.75 232.08-29.85L232.08-29.85Q231.43-30.3 230.56-30.6 229.68-30.9 228.73-31.1 227.78-31.3 226.81-31.4 225.83-31.5 225.03-31.5L225.03-31.5Q222.13-31.5 219.66-30.43 217.18-29.35 215.38-27.53 213.58-25.7 212.56-23.3 211.53-20.9 211.53-18.3L211.53-18.3Q211.53-15.75 212.51-13.4 213.48-11.05 215.21-9.2 216.93-7.35 219.36-6.25 221.78-5.15 224.68-5.15L224.68-5.15Q226.23-5.15 227.68-5.45 229.13-5.75 230.31-6.15 231.48-6.55 232.26-6.95 233.03-7.35 233.18-7.55L233.18-7.55ZM268.73 0L261.98 0Q260.23-2.25 258.63-4.3 257.03-6.35 255.48-8.4 253.93-10.45 252.36-12.55 250.78-14.65 249.03-16.9L249.03-16.9Q248.38-16.2 247.78-15.63 247.18-15.05 246.48-14.45L246.48-14.45Q246.48-10.6 246.51-7.23 246.53-3.85 246.53 0L246.53 0 240.48 0 240.48-36.25 246.53-36.25 246.53-22.7Q246.53-22.25 246.46-21.83 246.38-21.4 246.38-20.95L246.38-20.95Q246.63-21.3 246.88-21.58 247.13-21.85 247.38-22.25L247.38-22.25Q250.93-25.6 254.23-29.23 257.53-32.85 261.08-36.25L261.08-36.25 268.03-36.25Q264.28-32.35 260.61-28.4 256.93-24.45 253.18-20.55L253.18-20.55Q255.28-17.85 257.21-15.33 259.13-12.8 261.01-10.3 262.88-7.8 264.78-5.25 266.68-2.7 268.73 0L268.73 0ZM278.68 0L278.68-36.25 287.78-36.25Q293.28-36.25 297.08-34.6 300.88-32.95 303.25-30.28 305.63-27.6 306.7-24.28 307.78-20.95 307.78-17.65L307.78-17.65Q307.78-13.6 306.33-10.33 304.88-7.05 302.38-4.75 299.88-2.45 296.58-1.23 293.28 0 289.58 0L289.58 0 278.68 0ZM284.13-5.2L288.78-5.2Q291.68-5.2 294.15-6.05 296.63-6.9 298.45-8.53 300.28-10.15 301.3-12.53 302.33-14.9 302.33-18L302.33-18Q302.33-21.3 301.18-23.75 300.03-26.2 298.18-27.83 296.33-29.45 294-30.23 291.68-31 289.28-31L289.28-31 284.13-31 284.13-5.2ZM338.72 0L314.22 0 314.22-36.25 338.02-36.25 338.02-31.3 319.72-31.3 319.72-20.7 336.02-20.7 336.02-15.65 319.72-15.65 319.72-5.05 338.72-5.05 338.72 0ZM340.72-36.25L346.12-36.25Q346.47-35.4 347.27-33.48 348.07-31.55 349.1-29.1 350.12-26.65 351.25-23.9 352.37-21.15 353.37-18.7 354.37-16.25 355.17-14.33 355.97-12.4 356.32-11.55L356.32-11.55Q356.37-11.45 356.57-10.85 356.77-10.25 356.87-9.8L356.87-9.8 357.37-11.55Q357.72-12.4 358.52-14.33 359.32-16.25 360.32-18.7 361.32-21.15 362.45-23.9 363.57-26.65 364.6-29.1 365.62-31.55 366.42-33.48 367.22-35.4 367.57-36.25L367.57-36.25 372.97-36.25Q372.67-35.55 371.9-33.73 371.12-31.9 370.02-29.3 368.92-26.7 367.6-23.6 366.27-20.5 364.9-17.3 363.52-14.1 362.2-11 360.87-7.9 359.8-5.3 358.72-2.7 357.95-0.88 357.17 0.95 356.87 1.65L356.87 1.65 340.72-36.25Z" opacity="1" transform="matrix(1,0,0,1,0,0)" fill="#ffffff" class="undefined-text-1" data-fill-palette-color="quaternary" id="text-1"></path></svg></g></svg></g></svg></g></svg></g><g></g></svg></g></svg></g></svg></g></svg></g><defs></defs></svg><rect width="342.85155851775386" height="342.85155851775386" fill="none" stroke="none" visibility="hidden"></rect></g></svg></g></svg>